<svg width="20" height="12" viewBox="0 0 20 12" fill="none" xmlns="http://www.w3.org/2000/svg">
<path d="M6.66667 0H13.3333V1.66667H6.66667V0ZM3.33333 3.33333V1.66667H6.66667V3.33333H3.33333ZM1.66667 5V3.33333H3.33333V5H1.66667ZM1.66667 6.66667V5H0V6.66667H1.66667ZM3.33333 8.33333H1.66667V6.66667H3.33333V8.33333ZM6.66667 10H3.33333V8.33333H6.66667V10ZM13.3333 10V11.6667H6.66667V10H13.3333ZM16.6667 8.33333V10H13.3333V8.33333H16.6667ZM18.3333 6.66667V8.33333H16.6667V6.66667H18.3333ZM18.3333 5H20V6.66667H18.3333V5ZM16.6667 3.33333H18.3333V5H16.6667V3.33333ZM16.6667 3.33333V1.66667H13.3333V3.33333H16.6667ZM8.33333 4.16667H11.6667V7.5H8.33333V4.16667Z" fill="white"/>
</svg>
