<svg data-name="Group 77" xmlns="http://www.w3.org/2000/svg" width="113.347" height="125.172"><defs><clipPath id="a"><path data-name="Rectangle 122" fill="#fff" d="M0 0h113.347v125.172H0z"/></clipPath></defs><g data-name="Group 76" clip-path="url(#a)" fill="#fff" fill-rule="evenodd"><path data-name="Path 430" d="M11.335 85.28a12.632 12.632 0 0 0-6.225 6.008c-.669 1.364-1.524 2.634-2.282 3.955A5.335 5.335 0 0 1 .958 97.2a2.426 2.426 0 0 0-.958.817c.168.023.243.058.3.037a6.929 6.929 0 0 0 .735-.344A24.365 24.365 0 0 0 5.8 94.278q1.654-1.578 3.314-3.152a16.122 16.122 0 0 1 8.529-3.952 8.826 8.826 0 0 1 2.794-.017c-1.107 1.084-2.264 1.944-2.188 3.539a1.526 1.526 0 0 0 .545-.4c.164-.171.324-.347.489-.515a11.248 11.248 0 0 1 6.173-2.838c.721-.142 1.449-.251 2.174-.376.025.072.049.145.075.217-.9.457-1.791.923-2.7 1.367-.941.461-1.9.89-2.84 1.348a5.68 5.68 0 0 0-2.738 3.275c.488-.218.813-.338 1.112-.5a8.561 8.561 0 0 1 1.305-.768c1.785-.593 3.592-1.121 5.628-1.746-.792.849-1.465 1.475-2.019 2.191a2.79 2.79 0 0 1-2 1.022c-1.535.224-3.06.523-4.584.817a3.758 3.758 0 0 0-.834.352c-1.432.67-2.832 1.418-4.3 2.006-.134.054-.264.112-.4.167h.374v2.618a21.02 21.02 0 0 1 1.573-.693 11.685 11.685 0 0 1 5.825-.685c-.04.217-.07.436-.12.65-.2.855-.435 1.7-.609 2.566a1.662 1.662 0 0 0 .17.964 17.119 17.119 0 0 1 7.288-8.051 9.392 9.392 0 0 0-.427 4.544c.38 1.678 1.263 3.529 2.043 3.921-.862-1.927-1.5-3.776-.6-5.731a6.688 6.688 0 0 1 2.881-2.781 13.644 13.644 0 0 1 .964 3.682 11.9 11.9 0 0 1-1.233 6.9A5.206 5.206 0 0 0 31 105.5c1.966-1.755 2.719-4.164 3.546-6.55a5.882 5.882 0 0 1-.081 3.951 17.857 17.857 0 0 1-2.316 4.271 2.006 2.006 0 0 0-.353.716 11.814 11.814 0 0 0 4.106-4.071c-.543 2.475-1.037 4.919-.006 7.369a9.744 9.744 0 0 0 2.006 3.072 9.736 9.736 0 0 1-.65-4.548c.285-1.451.667-2.883 1.063-4.564.143.312.2.382.2.448a12.764 12.764 0 0 0 .8 4.466 35.975 35.975 0 0 0 1.948 4.56 2.169 2.169 0 0 0 .35.614c1.8 1.8 2.16 4.055 2.037 6.463a1.466 1.466 0 0 0 .106.646c1.5-2.24.867-4.608.415-6.982.956.959 1 2.241 1.353 3.412.392 1.314-.328 2.5-.445 3.98.289-.274.492-.385.567-.552a5.984 5.984 0 0 0 .673-3.886 33.952 33.952 0 0 1-.643-4.529c.353.861.768 1.7 1.046 2.587.4 1.268.665 2.577 1.054 3.849a4.1 4.1 0 0 1-.06 2.3c-.087.341-.133.693-.206 1.085.616.051.733-.324.908-.636a7.384 7.384 0 0 0 .691-3.142c.074-.943.036-1.894.045-2.843v-1.248c2.016 1.5 2.756 5.617 1.905 9.436.5-.247.671-.717.774-1.791.07-.731.26-1.452.316-2.183a9.618 9.618 0 0 0-.024-2.13c-.106-.714-.386-1.4-.471-2.236a3.436 3.436 0 0 1 .621.5c.6.767 1.212 1.534 1.753 2.345a3.372 3.372 0 0 1 .015 3.462c-.2.45-.436.887-.679 1.379 1.47-.6 2.7-2.807 2.671-7.268a1.723 1.723 0 0 1 1.113 1.525c.013.372-.047.75 0 1.117.111.893.259 1.78.4 2.669a.409.409 0 0 0 .235.319c.016-1.306-.394-2.567.394-3.754a1.959 1.959 0 0 1 1.256 1.436c.145.593.031 1.25.126 1.883a1.752 1.752 0 0 0 .347-2.1c-.359-.714-.638-1.47-.99-2.188a2.76 2.76 0 0 1-.2-2.071c.447-1.441.966-2.861 1.471-4.283a2.544 2.544 0 0 1 .361-.516c.709.709-.088 1.285-.043 1.987l1-.634c-.015 1.7 1.036 2.862 1.479 4.258.058.182.328.3.644.565a11.2 11.2 0 0 0-.387-1.805 3.579 3.579 0 0 1-.057-2.291c.237-.951.492-1.9.746-2.844.021-.079.106-.142.221-.289.262 1.4-.236 2.787.409 4.044a5.086 5.086 0 0 0 .39.525 4.232 4.232 0 0 0 .133-.686 9.1 9.1 0 0 1 .811-3.5 6.756 6.756 0 0 0 .707-3.007 14.845 14.845 0 0 0-.47-2.138c-.042-.186-.073-.374-.13-.669.971.233 1.338.964 1.823 1.577a9.9 9.9 0 0 1 1.216 2.2c.36.806.1 1.6.265 2.434a.672.672 0 0 0 .515-.749c0-.905-.046-1.811-.067-2.716a4.991 4.991 0 0 1 .092-1.237c.8.9.531 1.989.634 3.016.108 1.082-.511 2.034-.474 3.1a8.6 8.6 0 0 0 1.386-5.7 11.712 11.712 0 0 0-2.017-5.715c.391.043.619 0 .717.091a7.02 7.02 0 0 1 1.018 1.12 12.079 12.079 0 0 1 1.932 4.1 2.046 2.046 0 0 0 .649 1.236 33.939 33.939 0 0 0-1.061-8.943c1.433 1.236 1.421 3.007 1.969 4.676a4.394 4.394 0 0 0 .271-.869 10.027 10.027 0 0 0-.035-1.115c-.013-1.217.265-1.634 1.355-2.052.373-.144.672-.08.793.349.107.383.2.77.327 1.253a.893.893 0 0 0 .421-1.247c-.272-.807-.213-.865.63-1.025.821-.157 1.629-.387 2.45-.545.718-.139 1.457-.181 2.167-.348A7.812 7.812 0 0 0 84.3 97.1a1.575 1.575 0 0 0-1.462-.356 33.884 33.884 0 0 1-4.81.4 1.085 1.085 0 0 1-1.076-.593c-.218-.417-.531-.784-.769-1.193-.179-.307-.305-.646-.52-1.11a2.863 2.863 0 0 1 .8.009A13.132 13.132 0 0 0 81 95.05c1.213.014 2.435-.19 3.64-.105 1.11.078 2.319-.039 3.27.833a2.624 2.624 0 0 1 1.645-.044v-1.025h.834a7.708 7.708 0 0 0-2.094-.223c-.4-.022-.978.2-1.105-.491a5.237 5.237 0 0 0-1.69-.025 7.351 7.351 0 0 1-1.792.223c-.9.066-1.809.256-2.712.247a14.28 14.28 0 0 1-3.32-.3 4.53 4.53 0 0 1-3.59-4.34 15.9 15.9 0 0 0-.159-3.631 26.076 26.076 0 0 0-1.339-4.4c-.726-1.853-1.648-3.628-2.4-5.471a21.873 21.873 0 0 1-1.452-4.265 10.573 10.573 0 0 1-.124-3.108c.18-1.535.623-3 .862-4.505a10 10 0 0 0 .41-3.281 3.672 3.672 0 0 0-.089-.386c0-.015-.056-.018-.194-.057a29.037 29.037 0 0 1-1.26 6.258l-.422-.343c.058.709.116 1.408.17 2.107a.876.876 0 0 1-.005.4c-.482 1-.174 2.07-.248 3.1a5.732 5.732 0 0 0 .179 1.072 4.2 4.2 0 0 1 0 1.263 9.726 9.726 0 0 1-.883-3.658 4.769 4.769 0 0 0-.17 2.539c.085.562.161 1.126.233 1.691a2.182 2.182 0 0 0 .026.5c.616 1.584-.172 3.012-.484 4.492-.035.162-.106.318-.126.482a1.321 1.321 0 0 0 .106.39c1.157-1.587 1.542-3.468 2.495-5.231.257.288.491.447.583.666q1.617 3.86 3.193 7.739a2.575 2.575 0 0 1 .084 1.654c-1.151-.53-1.208-1.92-2.356-2.567a3.583 3.583 0 0 0 .3.707 10.539 10.539 0 0 1 2.126 4.943 55.29 55.29 0 0 0 .9 4.608 11.1 11.1 0 0 0 .94 2.016c.14.29.288.577.432.866l-.145.184a2.816 2.816 0 0 1-.855-.328c-.9-.764-1.761-1.574-2.639-2.364-.309-.279-.507-.727-1.064-.623-.117.021-.288-.149-.408-.26a11.836 11.836 0 0 1-3.082-3.969 2.691 2.691 0 0 0-.254-.346c-.032.264-.1.425-.057.543a11.771 11.771 0 0 0 3.026 4.6 39.185 39.185 0 0 1 2.655 2.92c.118.136.112.38.218.778a7.268 7.268 0 0 1-2-1.662c-.64-.551-1.295-1.083-1.921-1.649a12.5 12.5 0 0 0-1.834-1.514c.918.926 1.886 1.81 2.737 2.8a16.8 16.8 0 0 1 1.5 2.268c.1.154.036.4.079.591a2.732 2.732 0 0 0 .243.846 8.4 8.4 0 0 1 .925 3.185c.007.045-.055.1-.141.246-.461-.717-.932-1.37-1.318-2.071a3.766 3.766 0 0 0-1.346-1.469 9.768 9.768 0 0 1-2.91-2.79 3.709 3.709 0 0 0-.543-.5.905.905 0 0 0 .194 1.067 65.714 65.714 0 0 1 3.752 6.609 7.363 7.363 0 0 1 .357.978c-1.3-.554-1.742-1.705-2.76-2.24a12.38 12.38 0 0 1 1.32 4.63c-1.062-.325-1.333-1.4-2.059-1.983a20.006 20.006 0 0 1-2.113-1.893 27.273 27.273 0 0 1-1.82-2.294c-.552-.735-1.072-1.494-1.691-2.191a1.688 1.688 0 0 0 .443 1.169c1.079 1.552 2.188 3.083 3.223 4.662a7.461 7.461 0 0 1 .654 1.683c.029.085-.077.215-.164.434a6.238 6.238 0 0 0-2.08-2.857c.02.233-.006.352.041.4a7.719 7.719 0 0 1 1.867 6.012c-.014.3-.032.3-.656.686.4-2.086-.4-3.718-1.612-5.379.021 1.32.122 2.479.034 3.624a5.947 5.947 0 0 1-.8 3.289c.075-.892.163-1.783.223-2.675.065-.978.142-1.956.136-2.934a2.085 2.085 0 0 0-.463-1.08c-.438 1.317.011 2.731-.593 4.144-.538-1.549-1-3.019-2.635-3.686.339.626.7 1.239 1.01 1.878a4.023 4.023 0 0 1-.269 3.835c-.019.037-.122.029-.24.052a12.35 12.35 0 0 0-1.248-4.7c-.083-.155-.278-.25-.418-.371-.07.075-.113.1-.108.12.486 1.648.16 3.336.245 5a18.049 18.049 0 0 1 .021 1.827 7.463 7.463 0 0 1-.267 1.167 7.426 7.426 0 0 1-3.264-5.866 2.425 2.425 0 0 0-.243.391 7.231 7.231 0 0 0 .025 4.368 9.791 9.791 0 0 1 .224 2.7c-.711-1.285-1.481-2.541-2.115-3.864a5.773 5.773 0 0 1-.333-3.392 3.1 3.1 0 0 0 .02-1.021 3.363 3.363 0 0 0-.879 2.1 7.464 7.464 0 0 0-.169 2.308c.09.786.436 1.543.609 2.342a2.831 2.831 0 0 1-1.119-2.167 4.029 4.029 0 0 0-.306-2.064c-.648 1.015-.309 2.035-.371 3.123a3.675 3.675 0 0 1-.958-2.4 5.923 5.923 0 0 1 .153-1.6c.025-.2.1-.39.136-.588.182-1.089.357-2.179.534-3.269l-.256-.079c-.207.5-.415 1.005-.619 1.509a15.465 15.465 0 0 0-1.053 2.724 8.587 8.587 0 0 0 .062 2.71 4.334 4.334 0 0 1-.141 2.052 5.176 5.176 0 0 1-.592-2.469 14.628 14.628 0 0 0 0-1.925 1.927 1.927 0 0 0-.293-.631l-.2.05-.288 1.278c-.151-.11-.269-.15-.283-.213a6 6 0 0 1 .327-4.6c.481-.81.81-1.709 1.243-2.642a1.511 1.511 0 0 0-1.116.715 12.332 12.332 0 0 0-2.872 5.521c-.105.682-.326 1.346-.51 2.081a7.133 7.133 0 0 1-1.316-4.033c-.082-1.407-.016-2.822-.075-4.253a11.25 11.25 0 0 0-.8 3.645 31.962 31.962 0 0 0 .318 3.682c-1.523-1.583-2.115-6.14-1.3-10.047a11.185 11.185 0 0 0-.79.8c-1.477 1.8-2.083 4-2.8 6.146a3.3 3.3 0 0 1-.305.768 3.647 3.647 0 0 1-.026-1.6c.236-1.2.52-2.385.686-3.59.152-1.1.2-2.22.249-3.333.078-1.688.12-3.379.174-5.068 0-.125-.011-.251-.025-.545a6.356 6.356 0 0 0-.976 2.762 11.967 11.967 0 0 0-.134 2.02 7.987 7.987 0 0 1-.628 3.362c.334-2.662-.307-6.427-1.32-7.853-.361.556-.048 1.115-.088 1.643a15.257 15.257 0 0 1-.165 1.722 20.071 20.071 0 0 0-.961-5.814 9.136 9.136 0 0 0-4.734 4.215 2.758 2.758 0 0 1 1.659-3.35 3.014 3.014 0 0 0 2.045-2.731c-.122-.025-.226-.067-.238-.048a5.449 5.449 0 0 1-2.718 1.871 16.123 16.123 0 0 0-6.351 4.767 1.642 1.642 0 0 1-.222.2c-.015.013-.05 0-.234 0 1.963-3.545 5.12-5.638 8.364-7.783-.33.042-.666.06-.989.134-.352.08-.691.211-1.195.37.887-1.316 2.22-2.063 2.681-3.468.037-.112-.022-.255-.057-.557-1.364.979-2.243 2.418-3.763 2.965-1.483.533-2.99 1-4.487 1.5l-.1-.245c.58-.287 1.158-.577 1.741-.86 1.094-.531 2.216-1.013 3.282-1.6a6.958 6.958 0 0 0 3.5-3.916c.213-.64.549-1.238.774-1.875a8.862 8.862 0 0 0 .254-1.243l-.188-.078a1.611 1.611 0 0 0-.311.409 5.925 5.925 0 0 1-3.966 3.644 16.706 16.706 0 0 1-4.476.813 43.722 43.722 0 0 0-6.652.7A15.1 15.1 0 0 0 8.6 90.343c-1.221 1.313-2.524 2.552-3.8 3.816a2 2 0 0 1-.937.552c1.089-1.851 2.556-3.536 3.716-5.341a7.862 7.862 0 0 1 2.384-2.188c2.017-1.12 3.687-2.289 5.965-2.758a21.65 21.65 0 0 1 2.815-.345 12 12 0 0 0 9.336-4.812 4.882 4.882 0 0 0 .619-4.073c-.023-.108-.147-.194-.326-.42a6.079 6.079 0 0 1-3.154 3.5 7.2 7.2 0 0 1-2.574.758C23.846 78 25 77.125 25.36 75.617c-1.114.606-2.019 1.553-3.288 1.823a21.922 21.922 0 0 1-3.66.7 15.973 15.973 0 0 1-3.82-.425 7.8 7.8 0 0 1-3.379-1.521 2.061 2.061 0 0 1 .442.056 15.931 15.931 0 0 0 11.122-.21 15.109 15.109 0 0 0 5.152-2.975 9.887 9.887 0 0 0 2.518-4.623 15.075 15.075 0 0 1-4.761 3.379 4.793 4.793 0 0 0-2.713 2.988c-.158.619-.743.468-1.153.7a1.445 1.445 0 0 1 .235-1.378A16.214 16.214 0 0 1 23.8 71.9c1.117-1.131 2.307-2.192 3.5-3.249a5.65 5.65 0 0 0 1.956-3.568 5.875 5.875 0 0 0-.02-.936l-.228-.066c-.164.228-.345.446-.486.687a1.8 1.8 0 0 1-1.95.974c-.961-.146-1.915-.338-2.872-.51v-.26c.4-.069.79-.141 1.186-.206a5.642 5.642 0 0 0 4.35-3.133 1.546 1.546 0 0 0 .129-.986 5.375 5.375 0 0 1-.47.33 5.776 5.776 0 0 1-1.331.7 25.019 25.019 0 0 1-5.709.442 5.923 5.923 0 0 1 2.676-1.654 20.16 20.16 0 0 0 2.93-.779c1.51-.586 1.739-1.23 1.119-2.729a8.528 8.528 0 0 0-.625-1.07c-.182.046-.274.041-.3.079a14.728 14.728 0 0 1-4.455 4.216 53.276 53.276 0 0 1-6.9 3.487 1.68 1.68 0 0 1 .174-.236 3.957 3.957 0 0 1 .315-.256c1.745-1.394 3.5-2.778 5.231-4.185a21.993 21.993 0 0 0 4.946-5.482 8.771 8.771 0 0 0 1.352-3.367 8.956 8.956 0 0 1 .346-1.27c.1-.336.174-.656-.266-.934-.86.9-1.525 2.065-3.084 2.431.372-.349.595-.56.821-.769a4.626 4.626 0 0 0 1.645-3.686 31.737 31.737 0 0 0-.523-4.733 5.335 5.335 0 0 1 1.376-5.233c.6-.593 1.251-1.135 1.826-1.75a5.4 5.4 0 0 0 1.207-1.587 24.334 24.334 0 0 0 1.184-3.974 8.791 8.791 0 0 1 1.439-3.431 11.6 11.6 0 0 1 4.392-3.911c-1.087 1.932-2.75 3.329-2.986 5.514.471-.668.947-1.331 1.409-2a16.7 16.7 0 0 1 4-4.007 9.138 9.138 0 0 1 4.6-1.751 36.509 36.509 0 0 1 5.955-.166 42.758 42.758 0 0 1 5.37 1.024c.429.088.848.227 1.27.35a7.032 7.032 0 0 1 3.534 2.083c1.646 1.932 3.253 3.9 4.859 5.861a5.785 5.785 0 0 0 .784 1q-.162-.73-.321-1.459c1.3.817 2.789 3.6 4.139 6.764 1.065 2.5.8 5.251 1.037 8.07.9-.841.962-1.949 1.454-2.845 1.346 2.63.436 7.777-2.477 10.173l.334-2.2-.229-.077a5.824 5.824 0 0 0-.488 1.007 6.968 6.968 0 0 0 .457 4.735 2.779 2.779 0 0 0 2.59 1.615c2.433.218 4.536-.773 6.669-1.708 1.113-.488 2.255-.915 3.4-1.33a2.906 2.906 0 0 1 1.287-.122c-.827.443-1.659.876-2.479 1.333-1.567.872-3.108 1.793-4.7 2.626a7.751 7.751 0 0 1-5.419.67 8.1 8.1 0 0 1-2.321-1.4c-.13-.077-.254-.16-.381-.24l-.162.148a19.007 19.007 0 0 0 1.428 1.858 14.431 14.431 0 0 0 8.543 4.488 43.809 43.809 0 0 0 4.958.176 23.373 23.373 0 0 0 4.905-.524c1.414-.267 2.867-.324 4.3-.475l.042.2c-3.623.872-7.223 1.867-10.878 2.566a25.4 25.4 0 0 1-5.772.21 5.294 5.294 0 0 1-3.135-1.305 5.809 5.809 0 0 1-1.627-1.777 3.544 3.544 0 0 0-.39-.457 2.688 2.688 0 0 0 .047.668 7.14 7.14 0 0 0 2.9 3.291 11.441 11.441 0 0 0 5.859 1.73c1.754-.026 3.509.013 5.262-.037a6.241 6.241 0 0 0 1.962-.34 6.159 6.159 0 0 1 2.2-.235c1.185-.006 2.371 0 3.557 0a5.784 5.784 0 0 1 2.47.728c0 .075-.007.15-.01.225a4.774 4.774 0 0 1-.9-.008 13.835 13.835 0 0 0-4.538.31c-1.967.266-3.912.707-5.855 1.119a18.7 18.7 0 0 1-5.828.235 7.091 7.091 0 0 1-4.265-2.132c-.413-.4-.858-.766-1.307-1.123a.67.67 0 0 0-.588-.07c1.087 1.17 2.217 2.3 3.248 3.52a12.171 12.171 0 0 1 2.449 4.088 3.415 3.415 0 0 1-.632-.326c-.973-.784-1.92-1.6-2.9-2.376a26.175 26.175 0 0 0-2.515-1.851 4.521 4.521 0 0 1-1.478-1.627c-.13-.213-.29-.409-.564-.791a5.5 5.5 0 0 0 2.131 3.455 21.331 21.331 0 0 1 3.413 3.591q1.071 1.346 2.136 2.7c.5.636 1 1.275 1.487 1.919a5.6 5.6 0 0 1 .339.649 7.984 7.984 0 0 1-3.161-2.455c-.913-.929-1.673-2.006-2.639-2.958.207.429.412.86.621 1.288a16.463 16.463 0 0 0 3.512 4.809 14.762 14.762 0 0 0 6.321 3.315 29.881 29.881 0 0 0 4.978.883c2.854.286 5.7.627 8.548.979a53.311 53.311 0 0 1 5.5.8 12.82 12.82 0 0 1 6.053 3.56 6.638 6.638 0 0 1 1.559 2.485c-.333-.21-.51-.316-.68-.431a23.273 23.273 0 0 0-8.515-3.667c-1.021-.2-2.09-.154-3.13-.286a63.465 63.465 0 0 0-7.977-.353c-1.652 0-3.3-.074-4.954-.134a14.846 14.846 0 0 1-1.711-.162 18.428 18.428 0 0 1-3.94-.748 12.112 12.112 0 0 1-3.905-2.045c-.717-.641-1.423-1.294-2.134-1.941a1.316 1.316 0 0 0 .449 1.139 15.321 15.321 0 0 0 7.7 4.606c1.168.287 2.315.66 3.487.923a10.913 10.913 0 0 0 2.092.232 4.537 4.537 0 0 1 1.926.352c-4.6 1.211-9.02 2.482-13.776 1.681a3.532 3.532 0 0 0 1.956 1.486 4.429 4.429 0 0 1 2.83-.328 3.213 3.213 0 0 1-1.9.946c-.259.068-.531.087-.794.141-1.5.307-2.827.124-3.705-1.321-.03-.05-.107-.074-.167-.1-.022-.011-.057.007-.085.012a4.14 4.14 0 0 0 4.237 3.625 6.39 6.39 0 0 0 1.963-.377 10.559 10.559 0 0 1 4.945-.529 24.722 24.722 0 0 1 4.719.978 1.648 1.648 0 0 1 1.2 1.036c-.1.007-.2.019-.294.032h1.55c-.061-.053-.121-.106-.183-.156a7.43 7.43 0 0 0-1.491-1.178 15 15 0 0 0-2.609-.741c-.648-.151-1.315-.229-1.976-.323-.7-.1-1.393-.211-2.094-.26-1.008-.072-2.021-.086-3.03-.143a1.927 1.927 0 0 1-.509-.22 5.375 5.375 0 0 1 2.559-1.07c.86-.175 1.742-.236 2.818-.372l-1.384-.768c.338-.072.494-.107.65-.138 1.358-.276 2.715-.548 4.071-.828a20.725 20.725 0 0 1 5.665-.808 6.379 6.379 0 0 1 2.068.335c1.177.492 2.386 1.79 1.518 3.154-.077.12.009.341.022.586a2.654 2.654 0 0 0-.291-4.2 6.388 6.388 0 0 0-3.385-.872c-2.481-.088-4.957-.258-7.436-.394a58.02 58.02 0 0 1 11.768.047 21.6 21.6 0 0 1 2.591.266 23.63 23.63 0 0 1 7.465 3.09 6.07 6.07 0 0 1 3.044 4.425 3.765 3.765 0 0 0 .244.681 3.752 3.752 0 0 0-.143-2.965 11.2 11.2 0 0 1-.491-1.429 6.765 6.765 0 0 0-1.731-3.286 13.8 13.8 0 0 0-7.014-4.06c-1.119-.243-2.275-.314-3.415-.461-2.545-.328-5.092-.638-7.633-.985-2.278-.312-4.558-.621-6.821-1.019a9.137 9.137 0 0 1-3.476-1.313c2.854.683 6.3.353 7.109-.785-.191-.021-.37-.1-.5-.046a10.576 10.576 0 0 1-2.586.351 5.811 5.811 0 0 1-4.85-1.47 23.611 23.611 0 0 1-3.973-4.964c-.067-.105-.026-.279-.045-.553.918.747 1.72 1.4 2.525 2.052a4.875 4.875 0 0 0 5.468.682 7.854 7.854 0 0 0 3.041-2.771 2.248 2.248 0 0 0 .082-.625c-.754.6-1.323 1.126-1.96 1.547a10.022 10.022 0 0 1-2.287 1.26 2.728 2.728 0 0 1-2.163-.18 6.519 6.519 0 0 1-2.48-2.3c-.473-.735-1-1.435-1.488-2.163-.25-.375-.458-.778-.767-1.31.338.056.494.076.648.108a9.679 9.679 0 0 0 3.475.418c1.167-.179 2.346-.293 3.506-.507 1.888-.348 3.755-.817 5.65-1.112a24.568 24.568 0 0 1 4.025-.273 21.728 21.728 0 0 1 2.673.437 5.4 5.4 0 0 1 3.168 1.643c.453.457.9.921 1.368 1.362a3.747 3.747 0 0 0 .6.379c-.018-.662-.019-.659-.206-.895A14.553 14.553 0 0 0 97.7 65.5a9.071 9.071 0 0 0-3.111-1.09 55.2 55.2 0 0 0-5.544-.044 3.788 3.788 0 0 0-.595.11c-.359.062-.721.113-1.079.182-.291.055-.58.132-.869.195a3.289 3.289 0 0 1-.683.13c-1.558 0-3.117.014-4.673-.057a23.84 23.84 0 0 1-2.69-.37 3.318 3.318 0 0 1-.714-.382h1.359c1.049-.016 2.1.031 3.145-.073a34.551 34.551 0 0 0 3.706-.588c1.553-.327 3.09-.735 4.629-1.125a24.868 24.868 0 0 1 3.208-.826c1.64-.184 3.3-.185 4.954-.211a6.243 6.243 0 0 1 1.905.216 11.545 11.545 0 0 1 4.094 1.885c.1.08.292.039.443.054a2.115 2.115 0 0 0-.753-.953 17.386 17.386 0 0 0-8.817-2.837 6.582 6.582 0 0 0-.911.057 11.976 11.976 0 0 1-1.314.1 16.989 16.989 0 0 0-4.511.563 8.631 8.631 0 0 1-2.185.372 43.088 43.088 0 0 1-6.787-.26 15.784 15.784 0 0 1-5.722-2.2c-.306-.2-.7-.386-.724-.921h.655a7.956 7.956 0 0 0 3.56-.577c1.425-.694 2.812-1.466 4.213-2.208 1.822-.966 3.637-1.944 5.463-2.9a8.05 8.05 0 0 1 6.523-.31c.611.2 1.226.392 1.839.587.044-.07.086-.14.129-.211a5.053 5.053 0 0 0-1.048-.841 6.544 6.544 0 0 0-3.093-.78c-1.708.123-3.435-.243-5.13.316-1.044.344-2.172.44-3.2.816-1.553.567-3.062 1.258-4.571 1.94a11.6 11.6 0 0 1-4.741.945 2.308 2.308 0 0 1-2.241-1.852 1.078 1.078 0 0 1 .066-.682 21.167 21.167 0 0 1 1.401-2.07 11.213 11.213 0 0 0 2.193-5.855 9.334 9.334 0 0 0-.22-3.4 19.5 19.5 0 0 0-1.87-4.66 21.3 21.3 0 0 1-1.322-2.509 35.721 35.721 0 0 0-7.032-10.959 20.576 20.576 0 0 0-2.263-2.009c-.3-.246-.466-.464-.316-.855a4 4 0 0 0 .22-.781c.43-2.67.479-5.268-1.464-7.449.366-.644.763-1.263 1.072-1.922a2.271 2.271 0 0 0 .194-1.085A5.953 5.953 0 0 0 59.885 3.5c-1.1-.781-2.3-1.44-3.355-2.277A5.137 5.137 0 0 0 53.4 0h-.2a6.008 6.008 0 0 0-2.553.69c-.3.151-.6.309-.91.449a12.907 12.907 0 0 1-1.766.763 3.681 3.681 0 0 0-1.982 1.452c-1.08 1.4-1.558 2.772-.379 4.361-.46.2-.825.368-1.2.524a8.7 8.7 0 0 0-3.924 3.112c-1.643 2.415-2.215 4.922-.6 7.6a.564.564 0 0 1 .025.2c-.368.162-.745.31-1.109.489-3.881 1.9-6.673 4.694-7.5 9.117a2.487 2.487 0 0 1-.527 1.066 28.792 28.792 0 0 0-4.132 6.126 7.151 7.151 0 0 0-.35 5.528 13.586 13.586 0 0 1 .728 4.055 4.537 4.537 0 0 1-1.647 3.768 10.407 10.407 0 0 1-5.655 2.264c-.417.064-.84.084-1.26.124l.032.241c3.038.62 5.928-.07 8.988-1.273-.429.855-.713 1.5-1.066 2.113a22.113 22.113 0 0 1-5.521 6.039 1 1 0 0 1-.633.214 13.568 13.568 0 0 1-1.911-.238q-2.677-.569-5.34-1.207a11.981 11.981 0 0 0-5.333-.106 16.728 16.728 0 0 0-7.3 3.591 2.958 2.958 0 0 0-.349.569c.506-.221.777-.333 1.042-.457A11.643 11.643 0 0 1 4.97 59.8c1.414-.112 2.84-.114 4.258-.1a17.8 17.8 0 0 1 7.35 1.742 5.228 5.228 0 0 1 .547.342c-.254.222-.453.4-.656.571-.958.807-1.942 1.585-2.87 2.427a11.9 11.9 0 0 0-2.631 3.2 3.323 3.323 0 0 0-.4 2.446c.039.153.212.271.348.437.113-.157.2-.229.222-.317a8.906 8.906 0 0 1 2.727-4.083 20.684 20.684 0 0 1 5.8-3.5 1.664 1.664 0 0 1 .879-.069c1.07.148 2.136.338 3.2.5.491.077.985.137 1.638.227-1.66.183-3.151.265-4.608.53a5.352 5.352 0 0 0-3.615 2.355c.47-.208.879-.353 1.255-.559a4.765 4.765 0 0 1 5.1.1 5.426 5.426 0 0 0 2.706.769 12.573 12.573 0 0 1 1.511.23c-.458.454-.78.791-1.119 1.108-1.137 1.064-2.294 2.108-3.42 3.186-1.223 1.172-2.25 2.456-2.059 4.389a26.6 26.6 0 0 1-3.118.6 14.874 14.874 0 0 1-8.575-1.954 21.324 21.324 0 0 1-4.248-3.116 1.524 1.524 0 0 0-.99-.6c.388.51.644.913.965 1.254 1.158 1.234 2.318 2.468 3.522 3.657a7.961 7.961 0 0 0 1.685 1.3 14.351 14.351 0 0 0 10.848 1.682c.118-.03.24-.041.36-.06l.071.184-3.247 1.439c1.465.455 2.715-.226 4.061-.078l.508 1.847c-1.562.413-3.012.871-4.494 1.171a31.008 31.008 0 0 0-7.145 2.222M21.162 95.7c-1.47.18-2.928.458-4.392.683a4.78 4.78 0 0 1-.69 0c1.186-1.68 5.363-2.668 7.687-2.7a3.4 3.4 0 0 1-2.605 2.017m6.479-23.72a6.485 6.485 0 0 1-3.617 2.472 9.826 9.826 0 0 1 3.617-2.472m-.267-14.5c.074 1.257-.324 1.693-1.762 1.946l1.762-1.946M47.422 5.123a5.235 5.235 0 0 1 2.17-2.345A9.058 9.058 0 0 1 52 1.514a4.2 4.2 0 0 1 4.18.82c.6.483 1.171 1.013 1.8 1.452a4.644 4.644 0 0 1 1.174 5.665c-.19.3-.366.6-.862.289.032-.366.44-.739-.155-1.024-.695.242-1.37.821-2.328.515.572-.546 1.266-.994 1.317-1.962a7.782 7.782 0 0 1-4.871 1.058l1.725-.969a14.333 14.333 0 0 0-.065-.191c-.673.137-1.357.237-2.018.42a4.545 4.545 0 0 1-3.947-.735c-.745-.508-.827-.868-.53-1.728m-6.236 9.555a7.947 7.947 0 0 1 .672-1.522l.419 2.143c.51-.911.4-1.988 1.071-2.868l.221.642c1.32-2.134 1.535-2.353 2.607-2.692-.408.6-.84 1.221-1.254 1.855a1.53 1.53 0 0 0-.124.434l.174.115c.262-.283.548-.549.785-.853 1.216-1.553 2.9-1.556 4.623-1.391a2.849 2.849 0 0 1 .825.374 5.64 5.64 0 0 0 4.018.624 5.4 5.4 0 0 1 5.222 1.467c1.893 1.64 1.017 4.539-.225 5.613a.639.639 0 0 1-.453.145c-.765-.11-1.527-.25-2.289-.387a41.292 41.292 0 0 0-5.668-1.092 18.667 18.667 0 0 1-2.205-.333c-.332-.053-.655-.148-.937.174-.091.1-.307.114-.47.139-2.03.317-4.062.629-6.259.968a3.286 3.286 0 0 1-.753-3.556M12.027 59.269a19.72 19.72 0 0 0-5.357-.2c-.458.04-.922.007-1.384.007a8.443 8.443 0 0 1 3.529-1.009 12.527 12.527 0 0 1 4.415.449c1.041.286 2.082.582 3.138.8 1.019.211 2.058.327 3.175.5a3.3 3.3 0 0 1-1.107.962.937.937 0 0 1-.743-.035 25.428 25.428 0 0 0-5.666-1.466m12.24 20.253 2.365-1.125.159.135A9.446 9.446 0 0 1 24 81.51c.1-.767.186-1.369.269-1.981m-.769.271v.6l-.143.021c-.049-.2-.1-.395-.146-.592l.289-.029"/><path data-name="Path 431" d="M32.386 48.996a37.377 37.377 0 0 1 2.434-3.107c1.008-1.166 1.477-2.373.725-3.867a6.9 6.9 0 0 1-.525-1.6 3.54 3.54 0 0 1 .727-2.556 16.718 16.718 0 0 1 4.913-5.436 6.926 6.926 0 0 1 2-.969 3.117 3.117 0 0 1 2.81.782c.86.651 1.694 1.341 2.593 1.935a4.266 4.266 0 0 0 2.472.737c.868-.018 1.737.013 2.6 0a1.671 1.671 0 0 0 .681-.131c.884-.422 1.754-.871 2.629-1.311.63-.317 1.281-.6 1.883-.96 1.054-.636 1.894-.165 2.67.489a9.428 9.428 0 0 1 2.92 4.641 2.15 2.15 0 0 1 .043.6c0 1.388 0 2.776-.014 4.165a4.143 4.143 0 0 0 1.278 3.084 13.091 13.091 0 0 0 1.23 1.21c1.191.914 1.324 2.227 1.383 3.55a10.254 10.254 0 0 1-.783 3.6 7.929 7.929 0 0 0-.448 2.267 6.951 6.951 0 0 0 0 1.015 8.862 8.862 0 0 1-1.268 5.2c-.432.834-.8 1.7-1.2 2.554a1.348 1.348 0 0 1-.145.268c-.886 1.111-1.075 2.5-1.538 3.784a4.953 4.953 0 0 1-.537.876l-.312.018c-1.563-2.542-4.047-4-6.5-5.557.065.151.087.377.2.442a4.76 4.76 0 0 1 1.633 2.113 6.152 6.152 0 0 1-3.31 2c-.13.032-.29-.013-.4.046-1.079.569-2.021.017-3-.327-.661-.232-1.346-.4-2.019-.6a4.49 4.49 0 0 1-.756-.269c-.817-.42-.835-.841-.042-1.534l.734.359.923-2.865c-.675.482-1.269.951-1.906 1.355a17.17 17.17 0 0 0-4.072 3.3 7.3 7.3 0 0 0-1.9 3.064c-.2-.231-.422-.374-.463-.557a9.527 9.527 0 0 0-1.675-3.08 2.6 2.6 0 0 1-.484-1.608 3.256 3.256 0 0 0-1.573-3 6.017 6.017 0 0 1-2.569-3.94c-.2-.835-.122-1.738-.322-2.575a8.549 8.549 0 0 0-1.18-3.269 5.354 5.354 0 0 1-.985-2.821 2.527 2.527 0 0 1 .441-1.515m32.58-11.43c.187.225.4.369.44.55a6.7 6.7 0 0 1 .3 1.987 7.248 7.248 0 0 0 .988 4.962 1.6 1.6 0 0 1 .092.39 3.588 3.588 0 0 1-1.8-2.952c-.121-1.512-.113-3.034-.154-4.551a1.509 1.509 0 0 1 .141-.384m-7.2 30.035v-.981a8.322 8.322 0 0 1 3.446 3.879l-3.446-2.9m7.062 12.487a3.9 3.9 0 0 1-.41 2.258 3.739 3.739 0 0 0-.619 2.727 2.287 2.287 0 0 1-.812-1.5 138.41 138.41 0 0 1-.562-3.193 4.388 4.388 0 0 0-1.138-2.448 7.132 7.132 0 0 1-1.75-3.482 3.245 3.245 0 0 0-1.22-1.789l.311.859c-1.63-.172-2.46-1.461-3.737-2.527l.34.9c-.084.032-.151.085-.2.073-1.07-.246-1.638-.738-1.625-1.4.014-.637.486-1 1.614-1.266a2.762 2.762 0 0 1 1.88.15c.4.189.806.348 1.2.536a3.866 3.866 0 0 1 1.915 2c.528 1.169 1.143 2.3 1.73 3.439a4.132 4.132 0 0 0 .427.521l-.148-1.419a11.7 11.7 0 0 1 2.8 5.556m-10.041-5.31c-1.3.19-2.6.357-3.908.463-.243.02-.53-.248-.762-.429a4.666 4.666 0 0 1-.535-.57c1-1.182 2.32-1.052 3.6-.944a3.164 3.164 0 0 1 2.367 1.031c-.285.175-.508.411-.76.448m-.443 6.657c-.434-.907-.367-1.209.6-2.309-.187.721-.373 1.443-.6 2.309m-.548-2.686a3.21 3.21 0 0 1 .294-2.227c.32.751.29 1.025-.294 2.227m-8.1-9.828c-.137.955-.774 1.343-1.246 1.843-.08.085-.293.043-.445.059-.009-.182-.1-.45-.013-.532a5.408 5.408 0 0 1 1.7-1.369m-.039-1.025a16.253 16.253 0 0 0-3.521 2.732c.68-1.741 2.191-2.69 3.46-3.92.452.74.472.967.06 1.188m2.032 5.892a28.714 28.714 0 0 1-2.713 1.766 3.747 3.747 0 0 0-1.739 2.937 4.363 4.363 0 0 0 0 1.5 2.7 2.7 0 0 1-.863 2.66 5.6 5.6 0 0 1-2.184 1.237c.183-.644.321-1.189.493-1.726a6.47 6.47 0 0 0 .176-3.6 8.456 8.456 0 0 1-.235-1.6 4.273 4.273 0 0 1 3.473-4.425l.124.429a6.672 6.672 0 0 0 2.925-2.291 3.8 3.8 0 0 1 1.876-1.311 1.584 1.584 0 0 1 1.747.5 1.151 1.151 0 0 1 .06 1.646c-.333.418-.713.8-1.122 1.248l-.287-.7a17.786 17.786 0 0 1-1.724 1.731M32.064 56.057a96.503 96.503 0 0 0 0 2.947 2.3 2.3 0 0 0 .942 1.807c1.97 1.67 3.477 3.617 3.315 6.408a4.21 4.21 0 0 0 .039.506 4.87 4.87 0 0 0 1.733 3.541 2.531 2.531 0 0 1 .641.766c.665 1.374 1.572 2.684 1.128 4.366a4.315 4.315 0 0 0 .046 1.313c.039.608.1 1.215.128 1.823a3.2 3.2 0 0 1-1.135 2.594 18.56 18.56 0 0 0-1.682 2.008c-.088.112-.064.312-.092.471a6.609 6.609 0 0 1 1.93-1.611 7.028 7.028 0 0 0-.873 3.491c.06 1.985.209 2.7 1.02 3.3a5.7 5.7 0 0 1 .158-3.141 3.933 3.933 0 0 1 2.284-2.214c-.605 1.185-1.4 2.114-1.147 3.448.129-.12.227-.17.258-.248a9.135 9.135 0 0 1 1.6-2.321 6.7 6.7 0 0 0 2.018-4.423 12.648 12.648 0 0 1 .119-1.619 2.742 2.742 0 0 1 .259-.6 14.669 14.669 0 0 1-.2 6.336 2.933 2.933 0 0 0 1.164-2.285c.151-1.175.265-2.354.377-3.534a2.358 2.358 0 0 1 .743-1.542c-.105 2.837.1 5.225.538 6.138l.443-.52a12.074 12.074 0 0 1-.154 6.341 7.83 7.83 0 0 0 1.143-4.738c-.164-1.207-.393-2.4-.586-3.607a4.12 4.12 0 0 1 .932-3.54c-.121.825-.461 1.609-.547 2.419a14 14 0 0 0 .147 2.453l.144-.011.317-1.968c.293 1.346.792 2.659.373 4.075.187-.069.366-.144.4-.264a7.769 7.769 0 0 0 .434-1.643c.1-1.214.1-2.436.176-3.652a1.46 1.46 0 0 1 .564-1.356c-.141 1.715.549 3.109 1.094 4.7a1.983 1.983 0 0 0-.023-1.582 4.932 4.932 0 0 1 .312-3.261 3.628 3.628 0 0 1 .535-.8l.219.076a12.7 12.7 0 0 0-.541 5.01 9 9 0 0 0 1.153 4.932c.405-1.009-.169-1.9.01-2.794a4.418 4.418 0 0 1 .836 2.556c-.029.875-.2 1.745-.342 2.849a7.287 7.287 0 0 0 1.365-3.149c.291-1.626-.684-2.825-1.316-3.988a22.517 22.517 0 0 0 1.042-2.243 20.558 20.558 0 0 0 .507-2.327 4.4 4.4 0 0 1-.194 2.488 3.763 3.763 0 0 0 .264 3.5 7.169 7.169 0 0 1 1.272 3.561 2.214 2.214 0 0 0 .188.683c.384 1.049.758 2.1 1.171 3.138a5.665 5.665 0 0 1 .438 2.27 11.981 11.981 0 0 0 .18 1.643 6.4 6.4 0 0 0 .122-4.387c-.708-2.1-1.729-4.11-1.961-6.407l-.356.228a3.768 3.768 0 0 1-.382-2.907c.419-1.676 1.089-3.309.932-5.116a18.631 18.631 0 0 1 .806 2.6c.376 1.649.7 3.31 1.076 4.959a1.562 1.562 0 0 0 .814 1.276 11.469 11.469 0 0 1-.081-5.8c.148.287.234.417.286.559a10.279 10.279 0 0 1 .421 3.609c-.008.847-.05 1.693-.05 2.539a2.09 2.09 0 0 0 .931 1.725c-.022-2.355-.022-2.355.357-2.942.2.278.38.568.6.816a4.81 4.81 0 0 1 1.212 3.053c.02.372.042.743.066 1.115a3.375 3.375 0 0 0 .841 2.076c0-.8.024-1.647-.007-2.488a7.689 7.689 0 0 1-.049-2.512l.81.62a1.653 1.653 0 0 0-.394-1.566 2.809 2.809 0 0 1-.083-3.153 3.668 3.668 0 0 0 .207-3.42 95.962 95.962 0 0 0-1.956-4.342c-.3-.635-.717-1.218-1.138-1.92.461-.552.881-1.116 1.363-1.62a4.363 4.363 0 0 0 1.344-2.755 6.284 6.284 0 0 1 .806-3.21 11.56 11.56 0 0 0 1.573-5.035c.243-1.689-.05-3.42.286-5.143a9.963 9.963 0 0 1 .531-2.212 9.474 9.474 0 0 0 1.018-4.908c-.078-.7-.315-1.4-.321-2.1a4.947 4.947 0 0 0-.887-2.645 7.964 7.964 0 0 1-1.066-4.786l.607 2.724a6.422 6.422 0 0 0-.512-6.474c-.9-1.141-1.791-2.293-2.782-3.35a8.981 8.981 0 0 0-2.069-1.6c-2.263-1.3-4.686-2.349-6.609-4.479l.139 1-.113.042-1.27-2.195-.21.093a14.044 14.044 0 0 0 .516 1.5c.4.857.862 1.685 1.292 2.528.159.313.439.637-.075 1.008a27 27 0 0 1-2.517-3.619 3.291 3.291 0 0 0 .2 1.227c.218.6.489 1.189.721 1.788a3.4 3.4 0 0 1 .165 2.379 1.508 1.508 0 0 1-.465.741 6.223 6.223 0 0 1-1.6.861 2.537 2.537 0 0 1-2.504-.376q-1.858-1.577-3.658-3.221a3.9 3.9 0 0 1-1.172-2.521c-.042-.357-.114-.71-.172-1.064-.641 1.4-.085 2.718.194 4.2-.758-.626-1.423-1.14-2.048-1.7a3.324 3.324 0 0 1-1.34-1.967c-.015-.109-.2-.194-.353-.336a4.272 4.272 0 0 0 .369 3.044c.376.748.334.769-.53 1.074-.4-1.832-.426-1.883-1.568-2.636a3.372 3.372 0 0 1 .089 2.967 4.449 4.449 0 0 1-1.706 2.422c-.093-.959.195-1.826-.372-2.709-.11.335-.183.582-.272.823a21.646 21.646 0 0 1-1.147 3.024 18.5 18.5 0 0 0-1.8 3.272c-.028.091-.081.176-.207.444-.28-1.671.335-2.956.666-4.475a6.52 6.52 0 0 0-1.96 4.544c-.018 1.558.01 3.115.018 4.673a6.988 6.988 0 0 1-.456 3.03l-.71-1.208a.991.991 0 0 0-.248.705 7.064 7.064 0 0 1-.634 3.158 5.633 5.633 0 0 0 .5 5.588 3.922 3.922 0 0 1 .669 2.3"/><path data-name="Path 432" d="M35.06 79.924c-.116.685-.245 1.368-.368 2.051l.171.044 1.522-3.919c.808.8 1.365 1.782 2.472 2.043a3.151 3.151 0 0 0-.469-.672 7.707 7.707 0 0 1-1.723-4.255 11.962 11.962 0 0 0-.682-3.669 6.252 6.252 0 0 1-.417-3.079 10.044 10.044 0 0 0 .007-1.137l-.21-.011c-.064.25-.137.5-.191.752s-.1.54-.143.81a27.564 27.564 0 0 1-3.6-6.72l-.233.056c.07.494.127.991.212 1.482a19.559 19.559 0 0 0 2.5 6.058c1.783 3.223 1.751 6.666 1.158 10.166"/><path data-name="Path 433" d="M52.897 87.637c-.283-1.179-.513-2.372-.781-3.555a3.171 3.171 0 0 0-.258-.579l-.2.047.419 3.5-.237.079-1.016-1.732a2.708 2.708 0 0 0 .162.995 6.308 6.308 0 0 1 .4 1.562c.014 1.789.022 3.586-.127 5.366-.129 1.543-.489 3.066-.722 4.6a2.633 2.633 0 0 0 .057 1.615c.327-.8.612-1.5.9-2.2a7.837 7.837 0 0 0 .7-1.751c.181-1.266.208-2.553.3-3.831a4.776 4.776 0 0 1 .118-.571c.89 1.267.721 2.6.684 3.906.135-.007.232.01.245-.015a2.862 2.862 0 0 0 .239-.555 7.162 7.162 0 0 0-.237-4.664 14.7 14.7 0 0 1-.659-2.222"/><path data-name="Path 434" d="M46.511 84.319a2.726 2.726 0 0 0-.281.363 5.086 5.086 0 0 0-.712 3.016 6.553 6.553 0 0 1-1.035 4.25 9.4 9.4 0 0 1-.6 1.057 4.668 4.668 0 0 0-.771 3.761 2.12 2.12 0 0 0 .894 1.612 3.728 3.728 0 0 1 .324-3.206 11.068 11.068 0 0 1 1.15-1.668 5.688 5.688 0 0 0 1.167-4.87c-.211-1.429-.638-2.834-.134-4.315"/><path data-name="Path 435" d="M56.708 87.508c.021.232.04.463.066.694.13 1.137.351 2.273.373 3.412.048 2.465-.007 4.931-.018 7.4a5.382 5.382 0 0 0 .145 1.64 11.944 11.944 0 0 0 1.149-5.789 21.068 21.068 0 0 0-1.716-7.354"/><path data-name="Path 436" d="m48.914 97.976-.286.087a3.264 3.264 0 0 0 0 .582 10.535 10.535 0 0 1-.732 6.628 7.567 7.567 0 0 0-.594 3.362 2.275 2.275 0 0 0 .172.6l.256.041c-.132-.936.792-1.42.783-2.336a3.755 3.755 0 0 1 .331-1.37 10.635 10.635 0 0 0 .524-6.456 7.735 7.735 0 0 0-.458-1.14"/><path data-name="Path 437" d="M55.22 99.769a18.633 18.633 0 0 1 .483-4.311c.063-.256.293-.586-.248-.832a8.8 8.8 0 0 0-1.19 3.684 16.865 16.865 0 0 0 1.5 7.845l.253-.021c-.082-.551-.141-1.106-.249-1.651a23.6 23.6 0 0 1-.552-4.713"/><path data-name="Path 438" d="M45.274 85.157c-.167.15-.3.216-.348.321a7.5 7.5 0 0 1-2.018 2.227 18.369 18.369 0 0 0-1.386 1.327 3.9 3.9 0 0 0-1.053 1.776c.495-.428 1.009-.9 1.552-1.338.576-.464 1.216-.855 1.76-1.351a4.079 4.079 0 0 0 1.493-2.962"/><path data-name="Path 439" d="M57.701 81.2a4.2 4.2 0 0 0-.292-.62 5.5 5.5 0 0 0 .694 3.779c.569 1.02 1.215 2 1.929 3.157a3.7 3.7 0 0 0-.622-2.117 14.806 14.806 0 0 1-1.709-4.2"/><path data-name="Path 440" d="M66.638 87.182v-.99c-.448.408-.417.64 0 .99"/><path data-name="Path 441" d="M67.401 69.778v-.953c-.336.322-.149.637 0 .953"/><path data-name="Path 442" d="M74.625 80.141c-.171-.2-.338-.409-.5-.616-.054.441.057.716.5.616"/><path data-name="Path 443" d="m74.63 80.141.016.019.021.018c0-.014 0-.028.006-.042-.016 0-.029 0-.044.008"/><path data-name="Path 444" d="M36.005 52.078a2.035 2.035 0 0 1 2.651-.294l-.082.421a10.52 10.52 0 0 0 1.2.312 3.8 3.8 0 0 0 1.305.043c.879-.191 1.728-.507 2.6-.731a5.81 5.81 0 0 1 2.044-.373 6.3 6.3 0 0 1 1.9.874c.319.165.609.389.911.587l.216-.2a3.512 3.512 0 0 0-1.717-2.533 16.257 16.257 0 0 0-4.394-1.4c-1.094-.279-2.23-.4-3.315-.705a3.869 3.869 0 0 0-2.946.225 3.688 3.688 0 0 1-.195.958c-.5.951-1.048 1.881-1.593 2.809a.917.917 0 0 0 .14 1.179c.447-.413.846-.809 1.273-1.173"/><path data-name="Path 445" d="M54.188 53.029a1.928 1.928 0 0 0 .365-.163 4.737 4.737 0 0 1 4-.487 4.614 4.614 0 0 0 3.411-.273 2.94 2.94 0 0 1 3.49.277c.165.142.46.134.694.194l.144-.179c-.554-1.178-1.088-2.366-1.675-3.528a1.831 1.831 0 0 0-1.8-.6c-1.6.476-3.216.921-4.806 1.438a21.146 21.146 0 0 0-2.9 1.152 1.857 1.857 0 0 0-1.01 2.155c.032.006.069.026.095.016"/><path data-name="Path 446" d="M45.756 54.255c-.318-.205-.745-.69-1.258-.1l1.772 1.528c-.24.2-.349.352-.493.4-.949.328-1.9.666-2.865.937a3.161 3.161 0 0 1-3.126-.618 10.535 10.535 0 0 0-1.041-.8c-.5-.34-1-.735-1.716-.48.476 1.326 1.893 1.895 2.322 3.209h-.7a1.589 1.589 0 0 0 1.428.762c.644.005 1.287 0 1.931 0a4.764 4.764 0 0 0 3.232-1.251 1.714 1.714 0 0 1 1.934-.371 5.175 5.175 0 0 0 .9.155 4.132 4.132 0 0 0-2.316-3.374"/><path data-name="Path 447" d="M63.566 55.8a3.762 3.762 0 0 1-2.684.956 8.545 8.545 0 0 1-1.252-.312c-.916-.24-1.832-.482-2.79-.735.371-1.044 1.532-1.051 2.018-1.832-1.208-.4-2.988 1.1-3.7 3.156a3.918 3.918 0 0 1 2.72.829 3.658 3.658 0 0 0 2.294.628.966.966 0 0 1 .595.048c.933.609 1.7.047 2.62-.27l-.565-.6a13.985 13.985 0 0 0 1.161-1.126c.321-.388 1.042-.6.691-1.508-.415.287-.77.515-1.107.769"/><path data-name="Path 448" d="M50.064 61.671c.989-1.346.725-5.561-.459-6.408.72 2.145.419 4.233.459 6.408"/></g></svg>